<svg xmlns="http://www.w3.org/2000/svg" xmlns:xlink="http://www.w3.org/1999/xlink" width="320.8" height="66.84" viewBox="0 0 320.8 66.84">
  <defs>
    <clipPath id="clip-path">
      <rect id="Rectangle_54" data-name="Rectangle 54" width="320.8" height="66.84" fill="none"/>
    </clipPath>
  </defs>
  <g id="Logo" transform="translate(160.4 33.42)">
    <g id="Horizontal" transform="translate(-160.4 -33.42)" clip-path="url(#clip-path)">
      <path id="Path_859" data-name="Path 859" d="M66.8,33.4A33.4,33.4,0,1,0,33.4,66.8,33.4,33.4,0,0,0,66.8,33.4" fill="#ad020d"/>
      <path id="Path_860" data-name="Path 860" d="M31.9,40.3a.6.6,0,0,0,.5.3h2a.6.6,0,0,0,.5-.3L36,38a.6.6,0,0,0,.1-.3,2.7,2.7,0,0,0-5.3,0,.6.6,0,0,0,.1.3Z" fill="#fff"/>
      <path id="Path_861" data-name="Path 861" d="M37.2,45.1a.2.2,0,0,0,.2.3,23,23,0,0,1,17.8.7.2.2,0,0,0,.2-.3,11.5,11.5,0,0,0-18.3-.7" fill="#fff"/>
      <path id="Path_862" data-name="Path 862" d="M48.8,34.1a13.4,13.4,0,0,0-11.4,6,.2.2,0,0,0,.2.3,26.7,26.7,0,0,1,20.8-1.2.2.2,0,0,0,.2-.3,13.3,13.3,0,0,0-9.9-4.7" fill="#fff"/>
      <path id="Path_863" data-name="Path 863" d="M8.1,38.8a.2.2,0,0,0,.2.3,26.7,26.7,0,0,1,20.8,1.2.2.2,0,0,0,.2-.3A13.4,13.4,0,0,0,8.1,38.8" fill="#fff"/>
      <path id="Path_864" data-name="Path 864" d="M29.4,45.4a.2.2,0,0,0,.2-.3,11.5,11.5,0,0,0-18.3.7.2.2,0,0,0,.2.3,23,23,0,0,1,17.8-.7" fill="#fff"/>
      <path id="Path_865" data-name="Path 865" d="M64.5,33.4a31,31,0,1,0-32.3,31,.4.4,0,0,0,.3-.7l-.5-.6a6.4,6.4,0,0,1-.8-1.2l-.3-.2a28.4,28.4,0,1,1,9.6-.7h-.1c-.8.2-3,.6-4.3-.4s-1.2-1.8-1.2-3.4v-15a.4.4,0,0,0-.4-.4h-2a.4.4,0,0,0-.4.4v15c0,2.5.8,4.4,2.3,5.5s6.2.9,6.6.8A31.2,31.2,0,0,0,57.8,52.7a30.7,30.7,0,0,0,6.7-19.2" fill="#fff"/>
      <path id="Path_866" data-name="Path 866" d="M12.7,30.3a.2.2,0,0,0,.1-.3,7.4,7.4,0,0,1,4.6-11.4.6.6,0,0,0,.4-.4,7.4,7.4,0,0,1,7.3-5.8,7.6,7.6,0,0,1,2.2.3.6.6,0,0,0,.6-.2,7.4,7.4,0,0,1,11,0,.6.6,0,0,0,.6.2,7.5,7.5,0,0,1,2.2-.3A7.4,7.4,0,0,1,49,18.2a.6.6,0,0,0,.4.4A7.4,7.4,0,0,1,54,30a.2.2,0,0,0,.1.3l1.5.5h.2A9.3,9.3,0,0,0,50.7,17h-.1a9.3,9.3,0,0,0-8.9-6.4l-1.9.2h-.2a9.3,9.3,0,0,0-12.5,0H27l-1.9-.2A9.3,9.3,0,0,0,16.2,17h-.1A9.3,9.3,0,0,0,11,30.7h.2l1.5-.5" fill="#fff"/>
      <path id="Path_867" data-name="Path 867" d="M53.1,22.9a6.1,6.1,0,0,0-4.8-3,.6.6,0,0,1-.5-.5,6.1,6.1,0,0,0-8.7-5,.6.6,0,0,1-.7-.2,6.1,6.1,0,0,0-10,0,.6.6,0,0,1-.7.2,6.1,6.1,0,0,0-8.7,5,.6.6,0,0,1-.5.5,6.1,6.1,0,0,0-4.1,10h.2l2.2-.2A16,16,0,0,1,29.6,36a.2.2,0,0,0,.3,0A4,4,0,0,1,37,36a.2.2,0,0,0,.3,0,16,16,0,0,1,12.8-6.3l2.2.2h.2a6.1,6.1,0,0,0,.6-7M30.3,33.6a43.7,43.7,0,0,1-8.5-7.1c-2.7-3.2-2.4-5.4-2.2-5.9h.2c.6,0,2.8.1,5.4,3.3a43.7,43.7,0,0,1,5.4,9.7.2.2,0,0,1-.3.2m2.3-.9a.206.206,0,1,1-.4.1c-.9-1.6-3.7-6.6-4.6-10.7s.3-6.2.7-6.6h.2c.5.2,2.5,1.4,3.5,5.6a40.207,40.207,0,0,1,.5,11.6m1.6,0c-.1-1.9-.4-7.5.5-11.6s3-5.4,3.5-5.6h.2c.4.4,1.7,2.3.7,6.6s-3.7,9-4.6,10.7a.206.206,0,1,1-.4-.1m11-6.4a43.6,43.6,0,0,1-8.5,7.1.2.2,0,0,1-.3-.2,43.6,43.6,0,0,1,5.4-9.7c2.7-3.2,4.9-3.3,5.4-3.3h.2c.1.5.4,2.7-2.2,5.9" fill="#fff"/>
      <path id="Path_868" data-name="Path 868" d="M92,10.3l6.7,18.6,2.2.7v2.7H91V29.6l2.3-.7-.7-2.3H85.7l-.8,2.3,2.4.7v2.7H77.9V29.6l2.3-.7L87,10.4Zm-2.8,5.5-2.5,7.4h4.8Z" fill="#ad020d"/>
      <path id="Path_869" data-name="Path 869" d="M112.4,29.6v2.7h-9.5V29.6l2.3-.8V14l-2.3-.9V10.5l7.2-.2h3a8.2,8.2,0,0,1,5.6,1.7,6,6,0,0,1,2,4.8,7.3,7.3,0,0,1-2.3,5.8q-2.3,2-6.6,2h-1.7v4.2ZM110.1,14v7h1.7a4.5,4.5,0,0,0,3-.9,3.3,3.3,0,0,0,1-2.6A3.8,3.8,0,0,0,115,15a3,3,0,0,0-2.4-1Z" fill="#ad020d"/>
      <path id="Path_870" data-name="Path 870" d="M132.9,29.6v2.7h-9.5V29.6l2.3-.8V14l-2.3-.9V10.5l7.2-.2h3a8.2,8.2,0,0,1,5.6,1.7,6,6,0,0,1,2,4.8,7.3,7.3,0,0,1-2.3,5.8q-2.3,2-6.6,2h-1.7v4.2ZM130.6,14v7h1.7a4.5,4.5,0,0,0,3-.9,3.3,3.3,0,0,0,1-2.6,3.8,3.8,0,0,0-.8-2.5,3,3,0,0,0-2.4-1Z" fill="#ad020d"/>
      <path id="Path_871" data-name="Path 871" d="M155.2,10.3l6.7,18.6,2.2.7v2.7h-9.9V29.6l2.3-.7-.7-2.3h-6.9l-.8,2.3,2.4.7v2.7H141V29.6l2.3-.7,6.9-18.5Zm-2.8,5.5-2.5,7.4h4.8Z" fill="#ad020d"/>
      <path id="Path_872" data-name="Path 872" d="M174.5,14V28.7h4.8l.7-3.6h2.9v7.2H167.3V29.6l2.4-.8V14l-2.4-.9V10.5l9.6-.2v2.8Z" fill="#ad020d"/>
      <path id="Path_873" data-name="Path 873" d="M200.5,10.3l6.7,18.6,2.2.7v2.7h-9.9V29.6l2.3-.7-.7-2.3h-6.9l-.8,2.3,2.4.7v2.7h-9.4V29.6l2.3-.7,6.9-18.5Zm-2.8,5.5-2.5,7.4H200Z" fill="#ad020d"/>
      <path id="Path_874" data-name="Path 874" d="M224.7,14.3a10.9,10.9,0,0,0-3.5-.5q-5.2,0-5.1,7.6t5.3,7.2a8.3,8.3,0,0,0,2.9-.5,10.5,10.5,0,0,0,2.3-1.1l.8-.5,1.7,2.8-.4.4-1.1.8-1.7,1-2.3.8a10.2,10.2,0,0,1-2.7.4q-4.8,0-7.4-2.8t-2.6-8.2q0-5.5,2.8-8.6a9.9,9.9,0,0,1,7.7-3.1,18.1,18.1,0,0,1,3.5.4l2.8.7,1,.4-.2,5.9h-3.1Z" fill="#ad020d"/>
      <path id="Path_875" data-name="Path 875" d="M242.6,29.6v2.7H233V29.6l2.4-.8V14l-2.4-.9V10.5l9.6-.2v2.8l-2.4.9v5.1h8.2V14l-2.4-.9V10.5l9.6-.2v2.8l-2.4.9V28.8l2.4.8v2.7H246V29.6l2.4-.8v-6h-8.2v6Z" fill="#ad020d"/>
      <path id="Path_876" data-name="Path 876" d="M269.6,29.6v2.7h-9.5V29.6l2.3-.8V14l-2.3-.9V10.5l9.5-.2v2.8l-2.3.9V28.8Z" fill="#ad020d"/>
      <path id="Path_877" data-name="Path 877" d="M287.1,10.3l6.7,18.6,2.2.7v2.7h-9.9V29.6l2.3-.7-.7-2.3h-6.9l-.8,2.3,2.4.7v2.7H273V29.6l2.3-.7,6.9-18.5Zm-2.8,5.5-2.5,7.4h4.8Z" fill="#ad020d"/>
      <path id="Path_878" data-name="Path 878" d="M307.3,29.6v2.7h-9.1V29.6l2.4-.8V14l-2.4-.9V10.5l7.5-.2,8.5,14.4V14l-2.3-.9V10.5l8.9-.2v2.8l-2.4.9V32.3h-5.2l-8.3-14.1V28.8Z" fill="#ad020d"/>
      <path id="Path_879" data-name="Path 879" d="M89.1,42.8a8.3,8.3,0,0,0-2.7-.4q-3.9,0-3.9,5.9t4.1,5.5a6.3,6.3,0,0,0,2.2-.4l1.8-.8.6-.4,1.3,2.2-.3.3-.8.6L90,56l-1.7.6-2.1.3a7.3,7.3,0,0,1-5.7-2.2,9.046,9.046,0,0,1-2-6.3,9.4,9.4,0,0,1,2.2-6.6,7.6,7.6,0,0,1,5.9-2.4l2.7.3,2.1.6.8.3v4.5H89.7Z" fill="#ad020d"/>
      <path id="Path_880" data-name="Path 880" d="M102.6,39.5a7,7,0,0,1,5.6,2.2,9.1,9.1,0,0,1,2,6.3,9.4,9.4,0,0,1-2.2,6.5,7.4,7.4,0,0,1-5.8,2.5,6.9,6.9,0,0,1-5.5-2.2q-1.9-2.2-1.9-6.4a9.4,9.4,0,0,1,2.1-6.5,7.4,7.4,0,0,1,5.8-2.4m-.1,3a3.3,3.3,0,0,0-2.8,1.3,7.7,7.7,0,0,0-1,4.4,8.4,8.4,0,0,0,.9,4.3,2.9,2.9,0,0,0,2.7,1.4,3.3,3.3,0,0,0,2.9-1.4,7.8,7.8,0,0,0,1-4.5,7.8,7.8,0,0,0-.9-4.3,3.1,3.1,0,0,0-2.7-1.4" fill="#ad020d"/>
      <path id="Path_881" data-name="Path 881" d="M119.2,54.5v2.1h-6.8V54.5l1.8-.6V42.6l-1.8-.7v-2h6.2l3.6,8L126,40h5.7v2.1l-1.7.7V53.9l1.8.6v2.1h-7.1V54.5l1.9-.6v-9l-1,2.3-1.3,2.6L123.2,52h-2.6l-2.8-5.7-.4-1.2v8.7Z" fill="#ad020d"/>
      <path id="Path_882" data-name="Path 882" d="M141.8,54.5v2.1H135V54.5l1.8-.6V42.6l-1.8-.7v-2h6.2l3.6,8,3.8-7.9h5.7v2.1l-1.7.7V53.9l1.8.6v2.1h-7.1V54.5l1.9-.6v-9l-1,2.3-1.3,2.6L145.8,52h-2.6l-2.8-5.7-.4-1.2v8.7Z" fill="#ad020d"/>
      <path id="Path_883" data-name="Path 883" d="M162.9,42.6v7.6a4.8,4.8,0,0,0,.7,3,2.9,2.9,0,0,0,2.4.9,2.7,2.7,0,0,0,2.4-1,6.2,6.2,0,0,0,.6-3.2V42.6l-1.9-.7v-2h7.4V42l-1.8.7v7.2q0,3.6-1.6,5.3T165.8,57q-3.5,0-5.1-1.6t-1.6-5.1V42.6l-1.8-.7v-2h7.4V42Z" fill="#ad020d"/>
      <path id="Path_884" data-name="Path 884" d="M184.7,54.5v2.1h-6.9V54.5l1.8-.6V42.6l-1.8-.8V39.9l5.7-.2L190,50.8V42.6l-1.7-.8V39.9l6.8-.2v2.1l-1.8.8v14h-4l-6.4-10.8v8.1Z" fill="#ad020d"/>
      <path id="Path_885" data-name="Path 885" d="M205.5,54.5v2.1h-7.3V54.5l1.8-.6V42.6l-1.8-.8V39.9l7.3-.2v2.1l-1.8.8V53.9Z" fill="#ad020d"/>
      <path id="Path_886" data-name="Path 886" d="M211.6,56.6V54.5l1.9-.6V42.6h-2.3l-.6,2.2h-2.2v-5l13.9-.1v5.1h-2.2l-.6-2.2h-2.3V53.9l2,.6v2.1Z" fill="#ad020d"/>
      <path id="Path_887" data-name="Path 887" d="M236.4,54.5v2.1h-7.3V54.5l1.8-.6V50.8l-4.4-8.3-1.6-.7V39.9l6.8-.2v2.1l-1.2.6,2.4,5.1,2.5-5.1-1.3-.6V39.9l6.5-.2v2.1l-1.7.7-4.3,8.3v3.1Z" fill="#ad020d"/>
      <path id="Path_888" data-name="Path 888" d="M257.5,54.5v2.1h-7.7V54.5l1.8-.6V42.6l-1.8-.7v-2H262v4.5h-2.2l-.6-1.7h-3.9v4.2h5v2.6h-5V54l2.2.6" fill="#ad020d"/>
      <path id="Path_889" data-name="Path 889" d="M270.6,42.6v7.6a4.8,4.8,0,0,0,.7,3,2.9,2.9,0,0,0,2.4.9,2.7,2.7,0,0,0,2.4-1,6.2,6.2,0,0,0,.6-3.2V42.6l-1.9-.7v-2h7.4V42l-1.8.7v7.2q0,3.6-1.6,5.3T273.5,57q-3.5,0-5.1-1.6t-1.6-5.1V42.6l-1.8-.7v-2h7.4V42Z" fill="#ad020d"/>
      <path id="Path_890" data-name="Path 890" d="M291.7,54.5v2.1h-6.9V54.5l1.8-.6V42.6l-1.8-.8V39.9l5.7-.2L297,50.8V42.6l-1.8-.8V39.9l6.8-.2v2.1l-1.7.8v14h-4l-6.5-10.8v8.1Z" fill="#ad020d"/>
      <path id="Path_891" data-name="Path 891" d="M305.4,56.6V54.5l1.8-.6V42.6l-1.8-.7v-2h7.8a7.4,7.4,0,0,1,5.6,2.1,8.6,8.6,0,0,1,2,6.1,9,9,0,0,1-2.2,6.3,7.6,7.6,0,0,1-5.8,2.3Zm5.5-14.1V53.8h2a3.4,3.4,0,0,0,2.9-1.3,7.5,7.5,0,0,0,1-4.4,7.3,7.3,0,0,0-.9-4.2,3.2,3.2,0,0,0-2.8-1.3Z" fill="#ad020d"/>
    </g>
  </g>
</svg>
